<?xml version="1.0" standalone="no"?><!DOCTYPE svg PUBLIC "-//W3C//DTD SVG 1.1//EN" "http://www.w3.org/Graphics/SVG/1.1/DTD/svg11.dtd"><svg t="1716799277389" class="icon" viewBox="0 0 1029 1024" version="1.1" xmlns="http://www.w3.org/2000/svg" p-id="4728" xmlns:xlink="http://www.w3.org/1999/xlink" width="200.9765625" height="200"><path d="M515.4816 512m-512 0a512 512 0 1 0 1024 0 512 512 0 1 0-1024 0Z" fill="#3F66FF" p-id="4729"></path><path d="M787.501511 450.315378V271.160889c0-15.138133-12.225422-27.761778-26.891378-27.761778h-180.8896c-14.665956 0-26.885689 12.623644-26.885689 27.761778v179.154489c0 15.138133 12.219733 27.756089 26.885689 27.756089h180.8896c14.665956 0 26.891378-12.617956 26.891378-27.761778zM270.347378 550.968889c-14.660267 0-26.885689 12.219733-26.885689 26.885689v173.556622c0 14.665956 12.225422 26.885689 26.891378 26.885689h180.8896c14.665956 0 26.885689-12.219733 26.885689-26.885689v-173.556622c0-14.665956-12.219733-26.891378-26.885689-26.891378H270.347378z" fill="#FFFFFF" p-id="4730"></path><path d="M384.068267 395.645156h-30.116978c0-52.0192 43.804444-95.823644 95.823644-95.823645h10.951111c8.214756 0 13.687467-5.4784 13.687467-13.687467V250.538667c0-8.209067-5.472711-13.687467-13.687467-13.687467H449.774933c-87.608889 0-158.793956 71.185067-158.793955 158.793956h-35.589689c-5.472711 0-8.214756 5.472711-8.214756 10.951111 0 2.736356 0 2.736356 2.742045 5.472711l60.228266 68.448711c5.4784 5.472711 13.687467 5.472711 19.165867 0l60.228267-68.448711c2.742044-2.730667 2.742044-8.209067 0-10.951111-2.730667-2.736356-2.730667-5.472711-5.472711-5.472711zM646.894933 625.618489h30.116978c0 52.0192-43.804444 95.823644-95.823644 95.823644h-10.951111c-8.214756 0-13.687467 5.472711-13.687467 13.687467v38.331733c0 8.209067 5.472711 13.687467 13.687467 13.687467h10.951111c87.608889 0 158.793956-71.185067 158.793955-158.793956h35.589689c5.472711 0 8.214756-2.736356 8.214756-8.214755 0-2.730667 0-2.730667-2.742045-5.472711l-60.228266-68.443022c-5.4784-5.4784-13.687467-5.4784-19.165867 0l-60.228267 68.437333c-2.742044 2.742044-2.742044 8.220444 0 10.9568 0-2.736356 2.730667 0 5.472711 0z" fill="#C5D1FF" p-id="4731"></path></svg>